<svg xmlns="http://www.w3.org/2000/svg" viewBox="0 0 512 512" role="img" aria-label="Radiation icon">
  <rect x="24" y="24" width="464" height="464" rx="104" ry="104" fill="#0b4ea2"/>
  <g fill="#ffffff" transform="translate(256 256)">
    <circle r="34"/>
    <path d="M 0 -176 A 176 176 0 0 1 70.4 -161.3 L 39.6 -89 A 98 98 0 0 0 0 -98 Z"/>
    <path d="M 152.4 88 A 176 176 0 0 1 83.6 155.7 L 40 90.4 A 98 98 0 0 0 84.9 49 Z"/>
    <path d="M -152.4 88 A 176 176 0 0 0 -154 85.2 L -85.8 50.2 A 98 98 0 0 1 -84.9 49 L -40 90.4 A 176 176 0 0 1 -83.6 155.7 Z"/>
  </g>
</svg>
