<svg xmlns="http://www.w3.org/2000/svg" viewBox="0 0 512 512" role="img" aria-label="SHOT PLANNER logo">
  <rect width="512" height="512" rx="96" fill="#0b3d91"/>
  <g transform="translate(256 220)" fill="#ffffff">
    <circle r="28"/>
    <path d="M0-116a116 116 0 0 1 53 12l-23.5 40.5A69 69 0 0 0 0-70z"/>
    <path d="M100.5 58A116 116 0 0 1 0 116V70a69 69 0 0 0 59.8-34.5z"/>
    <path d="M-100.5 58A116 116 0 0 1-53-104l23.5 40.5A69 69 0 0 0-59.8 34.5z"/>
    <circle r="11" fill="#0b3d91"/>
  </g>
  <text x="256" y="438" text-anchor="middle" fill="#ffffff" font-family="Inter, Arial, sans-serif" font-size="66" font-weight="800" letter-spacing="1.6">SHOT PLANNER</text>
</svg>
