<svg xmlns="http://www.w3.org/2000/svg" viewBox="0 0 256 256" role="img" aria-label="Radiation icon">
  <rect width="256" height="256" rx="36" fill="#0066cc"/>
  <g transform="translate(128 128)">
    <circle r="26" fill="#ffffff"/>
    <path fill="#ffffff" d="M0-101a101 101 0 0 1 44.2 10.2L24.3-56.3A54 54 0 0 0 0-62Z"/>
    <path fill="#ffffff" d="M87.5 50.5A101 101 0 0 1 0 101V62a54 54 0 0 0 46.8-27Z"/>
    <path fill="#ffffff" d="M-87.5 50.5A101 101 0 0 1-44.2-90.8l19.9 34.5A54 54 0 0 0-46.8 27Z"/>
    <circle r="10" fill="#0066cc"/>
  </g>
</svg>
