<svg xmlns="http://www.w3.org/2000/svg" viewBox="0 0 512 512" role="img" aria-label="Radiation icon">
  <rect width="512" height="512" rx="96" fill="#0b3d91"/>
  <g transform="translate(256 256) scale(1.22)" fill="#ffffff">
    <circle r="32"/>
    <path d="M0-116a116 116 0 0 1 53 12l-23.5 40.5A69 69 0 0 0 0-70z"/>
    <path d="M100.5 58A116 116 0 0 1 0 116V70a69 69 0 0 0 59.8-34.5z"/>
    <path d="M-100.5 58A116 116 0 0 1-53-104l23.5 40.5A69 69 0 0 0-59.8 34.5z"/>
    <circle r="12" fill="#0b3d91"/>
  </g>
</svg>
